REM DIRINDEX 1\2,1\3
REM DIRNAME cjc116,folder01,folder02
TITLE ""
FILE "Disc2Track07.mp3" MP3
  TRACK 01 AUDIO
    TITLE "0:"
    INDEX 01 00:00:00
  TRACK 02 AUDIO
    TITLE "3:cjc116_2387"
    INDEX 01 00:00:07
  TRACK 03 AUDIO
    TITLE "0:"
    INDEX 01 00:02:06
  TRACK 04 AUDIO
    TITLE "3:cjc116_2388"
    INDEX 01 00:02:69
  TRACK 05 AUDIO
    TITLE "0:"
    INDEX 01 00:04:70
  TRACK 06 AUDIO
    TITLE "2:cjc116_2389"
    INDEX 01 00:05:50
  TRACK 07 AUDIO
    TITLE "0:"
    INDEX 01 00:07:00
  TRACK 08 AUDIO
    TITLE "2:cjc116_2390"
    INDEX 01 00:07:47
  TRACK 09 AUDIO
    TITLE "0:"
    INDEX 01 00:10:39
  TRACK 10 AUDIO
    TITLE "2:cjc116_2391"
    INDEX 01 00:11:03
  TRACK 11 AUDIO
    TITLE "0:"
    INDEX 01 00:12:63
  TRACK 12 AUDIO
    TITLE "2:cjc116_2392"
    INDEX 01 00:13:33
  TRACK 13 AUDIO
    TITLE "0:"
    INDEX 01 00:14:72
  TRACK 14 AUDIO
    TITLE "2:cjc116_2393"
    INDEX 01 00:15:36
  TRACK 15 AUDIO
    TITLE "0:"
    INDEX 01 00:17:27
  TRACK 16 AUDIO
    TITLE "2:cjc116_2394"
    INDEX 01 00:17:67
  TRACK 17 AUDIO
    TITLE "0:"
    INDEX 01 00:19:24
  TRACK 18 AUDIO
    TITLE "2:cjc116_2395"
    INDEX 01 00:19:67
  TRACK 19 AUDIO
    TITLE "0:"
    INDEX 01 00:21:25
  TRACK 20 AUDIO
    TITLE "2:cjc116_2396"
    INDEX 01 00:21:68
  TRACK 21 AUDIO
    TITLE "0:"
    INDEX 01 00:23:40
  TRACK 22 AUDIO
    TITLE "2:cjc116_2397"
    INDEX 01 00:23:71
  TRACK 23 AUDIO
    TITLE "0:"
    INDEX 01 00:26:01
  TRACK 24 AUDIO
    TITLE "2:cjc116_2398"
    INDEX 01 00:26:40
  TRACK 25 AUDIO
    TITLE "0:"
    INDEX 01 00:28:66
  TRACK 26 AUDIO
    TITLE "2:cjc116_2399"
    INDEX 01 00:29:34
  TRACK 27 AUDIO
    TITLE "0:"
    INDEX 01 00:31:33
  TRACK 28 AUDIO
    TITLE "2:cjc116_2400"
    INDEX 01 00:32:00
  TRACK 29 AUDIO
    TITLE "0:"
    INDEX 01 00:33:42
  TRACK 30 AUDIO
    TITLE "2:cjc116_2401"
    INDEX 01 00:34:06
  TRACK 31 AUDIO
    TITLE "0:"
    INDEX 01 00:35:61
  TRACK 32 AUDIO
    TITLE "2:cjc116_2402"
    INDEX 01 00:36:33
  TRACK 33 AUDIO
    TITLE "0:"
    INDEX 01 00:38:00
  TRACK 34 AUDIO
    TITLE "2:cjc116_2403"
    INDEX 01 00:38:43
  TRACK 35 AUDIO
    TITLE "0:"
    INDEX 01 00:40:03
  TRACK 36 AUDIO
    TITLE "2:cjc116_2404"
    INDEX 01 00:40:48
  TRACK 37 AUDIO
    TITLE "0:"
    INDEX 01 00:42:00
  TRACK 38 AUDIO
    TITLE "2:cjc116_2405"
    INDEX 01 00:42:39
  TRACK 39 AUDIO
    TITLE "0:"
    INDEX 01 00:44:16
  TRACK 40 AUDIO
    TITLE "2:cjc116_2406"
    INDEX 01 00:44:61
  TRACK 41 AUDIO
    TITLE "0:"
    INDEX 01 00:46:64
  TRACK 42 AUDIO
    TITLE "2:cjc116_2407"
    INDEX 01 00:47:27
  TRACK 43 AUDIO
    TITLE "0:"
    INDEX 01 00:48:61
  TRACK 44 AUDIO
    TITLE "2:cjc116_2408"
    INDEX 01 00:49:29
  TRACK 45 AUDIO
    TITLE "0:"
    INDEX 01 00:50:37
  TRACK 46 AUDIO
    TITLE "2:cjc116_2409"
    INDEX 01 00:51:01
  TRACK 47 AUDIO
    TITLE "0:"
    INDEX 01 00:52:30
  TRACK 48 AUDIO
    TITLE "2:cjc116_2410"
    INDEX 01 00:53:02
  TRACK 49 AUDIO
    TITLE "0:"
    INDEX 01 00:54:54
  TRACK 50 AUDIO
    TITLE "2:cjc116_2411"
    INDEX 01 00:55:18
  TRACK 51 AUDIO
    TITLE "0:"
    INDEX 01 00:56:57
  TRACK 52 AUDIO
    TITLE "2:cjc116_2412"
    INDEX 01 00:57:21
  TRACK 53 AUDIO
    TITLE "0:"
    INDEX 01 00:59:24
  TRACK 54 AUDIO
    TITLE "2:cjc116_2413"
    INDEX 01 00:59:63
  TRACK 55 AUDIO
    TITLE "0:"
    INDEX 01 01:01:48
  TRACK 56 AUDIO
    TITLE "2:cjc116_2414"
    INDEX 01 01:02:20
  TRACK 57 AUDIO
    TITLE "0:"
    INDEX 01 01:04:15
  TRACK 58 AUDIO
    TITLE "2:cjc116_2415"
    INDEX 01 01:04:56
  TRACK 59 AUDIO
    TITLE "0:"
    INDEX 01 01:06:10
  TRACK 60 AUDIO
    TITLE "2:cjc116_2416"
    INDEX 01 01:06:47
  TRACK 61 AUDIO
    TITLE "0:"
    INDEX 01 01:11:21
  TRACK 62 AUDIO
    TITLE "2:cjc116_2417"
    INDEX 01 01:11:58
  TRACK 63 AUDIO
    TITLE "0:"
    INDEX 01 01:13:10
  TRACK 64 AUDIO
    TITLE "2:cjc116_2418"
    INDEX 01 01:13:59
  TRACK 65 AUDIO
    TITLE "0:"
    INDEX 01 01:15:25
  TRACK 66 AUDIO
    TITLE "2:cjc116_2419"
    INDEX 01 01:15:70
  TRACK 67 AUDIO
    TITLE "0:"
    INDEX 01 01:17:06
  TRACK 68 AUDIO
    TITLE "2:cjc116_2420"
    INDEX 01 01:17:47
  TRACK 69 AUDIO
    TITLE "0:"
    INDEX 01 01:19:09
  TRACK 70 AUDIO
    TITLE "2:cjc116_2421"
    INDEX 01 01:19:48
  TRACK 71 AUDIO
    TITLE "0:"
    INDEX 01 01:21:27
  TRACK 72 AUDIO
    TITLE "2:cjc116_2422"
    INDEX 01 01:21:67
  TRACK 73 AUDIO
    TITLE "0:"
    INDEX 01 01:23:09
  TRACK 74 AUDIO
    TITLE "2:cjc116_2423"
    INDEX 01 01:23:48
  TRACK 75 AUDIO
    TITLE "0:"
    INDEX 01 01:25:37
  TRACK 76 AUDIO
    TITLE "2:cjc116_2424"
    INDEX 01 01:26:01
  TRACK 77 AUDIO
    TITLE "0:"
    INDEX 01 01:27:46
  TRACK 78 AUDIO
    TITLE "2:cjc116_2425"
    INDEX 01 01:28:10
  TRACK 79 AUDIO
    TITLE "0:"
    INDEX 01 01:29:21
  TRACK 80 AUDIO
    TITLE "2:cjc116_2426"
    INDEX 01 01:29:66
  TRACK 81 AUDIO
    TITLE "0:"
    INDEX 01 01:31:34
  TRACK 82 AUDIO
    TITLE "2:cjc116_2427"
    INDEX 01 01:31:73
  TRACK 83 AUDIO
    TITLE "0:"
    INDEX 01 01:33:48
  TRACK 84 AUDIO
    TITLE "2:cjc116_2428"
    INDEX 01 01:34:12
  TRACK 85 AUDIO
    TITLE "0:"
    INDEX 01 01:35:39
  TRACK 86 AUDIO
    TITLE "2:cjc116_2429"
    INDEX 01 01:36:05
  TRACK 87 AUDIO
    TITLE "0:"
    INDEX 01 01:37:46
  TRACK 88 AUDIO
    TITLE "2:cjc116_2430"
    INDEX 01 01:38:12
  TRACK 89 AUDIO
    TITLE "0:"
    INDEX 01 01:39:21
  TRACK 90 AUDIO
    TITLE "2:cjc116_2431"
    INDEX 01 01:39:64
  TRACK 91 AUDIO
    TITLE "0:"
    INDEX 01 01:41:40
  TRACK 92 AUDIO
    TITLE "2:cjc116_2432"
    INDEX 01 01:42:04
  TRACK 93 AUDIO
    TITLE "0:"
    INDEX 01 01:43:54
  TRACK 94 AUDIO
    TITLE "2:cjc116_2433"
    INDEX 01 01:44:19
  TRACK 95 AUDIO
    TITLE "0:"
    INDEX 01 01:46:18
  TRACK 96 AUDIO
    TITLE "2:cjc116_2434"
    INDEX 01 01:46:61
  TRACK 97 AUDIO
    TITLE "0:"
    INDEX 01 01:48:30
  TRACK 98 AUDIO
    TITLE "2:cjc116_2435"
    INDEX 01 01:49:00
  TRACK 99 AUDIO
    TITLE "0:"
    INDEX 01 01:50:31
  TRACK 100 AUDIO
    TITLE "2:cjc116_2436"
    INDEX 01 01:50:72
  TRACK 101 AUDIO
    TITLE "0:"
    INDEX 01 01:52:57
  TRACK 102 AUDIO
    TITLE "2:cjc116_2437"
    INDEX 01 01:53:12
  TRACK 103 AUDIO
    TITLE "0:"
    INDEX 01 01:54:41
  TRACK 104 AUDIO
    TITLE "2:cjc116_2438"
    INDEX 01 01:55:05
  TRACK 105 AUDIO
    TITLE "0:"
    INDEX 01 01:56:39
  TRACK 106 AUDIO
    TITLE "2:cjc116_2439"
    INDEX 01 01:57:04
  TRACK 107 AUDIO
    TITLE "0:"
    INDEX 01 01:58:60
  TRACK 108 AUDIO
    TITLE "2:cjc116_2440"
    INDEX 01 01:59:24
  TRACK 109 AUDIO
    TITLE "0:"
    INDEX 01 02:00:63
  TRACK 110 AUDIO
    TITLE "2:cjc116_2441"
    INDEX 01 02:01:29
  TRACK 111 AUDIO
    TITLE "0:"
    INDEX 01 02:02:48
  TRACK 112 AUDIO
    TITLE "2:cjc116_2442"
    INDEX 01 02:03:20
  TRACK 113 AUDIO
    TITLE "0:"
    INDEX 01 02:04:51
  TRACK 114 AUDIO
    TITLE "2:cjc116_2443"
    INDEX 01 02:05:17
  TRACK 115 AUDIO
    TITLE "0:"
    INDEX 01 02:06:36
  TRACK 116 AUDIO
    TITLE "2:cjc116_2444"
    INDEX 01 02:07:08
  TRACK 117 AUDIO
    TITLE "0:"
    INDEX 01 02:08:58
  TRACK 118 AUDIO
    TITLE "2:cjc116_2445"
    INDEX 01 02:09:19
  TRACK 119 AUDIO
    TITLE "0:"
    INDEX 01 02:10:43
  TRACK 120 AUDIO
    TITLE "2:cjc116_2446"
    INDEX 01 02:11:10
  TRACK 121 AUDIO
    TITLE "0:"
    INDEX 01 02:12:60
  TRACK 122 AUDIO
    TITLE "2:cjc116_2447"
    INDEX 01 02:13:16
  TRACK 123 AUDIO
    TITLE "0:"
    INDEX 01 02:14:57
  TRACK 124 AUDIO
    TITLE "2:cjc116_2448"
    INDEX 01 02:15:27
  TRACK 125 AUDIO
    TITLE "0:"
    INDEX 01 02:17:04
  TRACK 126 AUDIO
    TITLE "2:cjc116_2449"
    INDEX 01 02:17:44
  TRACK 127 AUDIO
    TITLE "0:"
    INDEX 01 02:19:48
  TRACK 128 AUDIO
    TITLE "2:cjc116_2450"
    INDEX 01 02:20:16
  TRACK 129 AUDIO
    TITLE "0:"
    INDEX 01 02:21:45
  TRACK 130 AUDIO
    TITLE "2:cjc116_2451"
    INDEX 01 02:22:13
  TRACK 131 AUDIO
    TITLE "0:"
    INDEX 01 02:23:36
  TRACK 132 AUDIO
    TITLE "2:cjc116_2452"
    INDEX 01 02:24:02
  TRACK 133 AUDIO
    TITLE "0:"
    INDEX 01 02:25:12
  TRACK 134 AUDIO
    TITLE "2:cjc116_2453"
    INDEX 01 02:25:49
  TRACK 135 AUDIO
    TITLE "0:"
    INDEX 01 02:26:64
  TRACK 136 AUDIO
    TITLE "2:cjc116_2454"
    INDEX 01 02:27:26
  TRACK 137 AUDIO
    TITLE "0:"
    INDEX 01 02:29:33
  TRACK 138 AUDIO
    TITLE "2:cjc116_2455"
    INDEX 01 02:29:72
  TRACK 139 AUDIO
    TITLE "0:"
    INDEX 01 02:31:48
  TRACK 140 AUDIO
    TITLE "2:cjc116_2456"
    INDEX 01 02:32:06
  TRACK 141 AUDIO
    TITLE "0:"
    INDEX 01 02:33:58
  TRACK 142 AUDIO
    TITLE "2:cjc116_2457"
    INDEX 01 02:34:15
  TRACK 143 AUDIO
    TITLE "0:"
    INDEX 01 02:35:34
  TRACK 144 AUDIO
    TITLE "2:cjc116_2458"
    INDEX 01 02:36:04
  TRACK 145 AUDIO
    TITLE "0:"
    INDEX 01 02:37:13
  TRACK 146 AUDIO
    TITLE "2:cjc116_2459"
    INDEX 01 02:37:54
  TRACK 147 AUDIO
    TITLE "0:"
    INDEX 01 02:39:27
  TRACK 148 AUDIO
    TITLE "2:cjc116_2460"
    INDEX 01 02:39:69
  TRACK 149 AUDIO
    TITLE "0:"
    INDEX 01 02:41:58
  TRACK 150 AUDIO
    TITLE "2:cjc116_2461"
    INDEX 01 02:42:22
  TRACK 151 AUDIO
    TITLE "0:"
    INDEX 01 02:43:55
  TRACK 152 AUDIO
    TITLE "2:cjc116_2462"
    INDEX 01 02:44:19
  TRACK 153 AUDIO
    TITLE "0:"
    INDEX 01 02:45:42
  TRACK 154 AUDIO
    TITLE "2:cjc116_2463"
    INDEX 01 02:46:08
  TRACK 155 AUDIO
    TITLE "0:"
    INDEX 01 02:47:60
  TRACK 156 AUDIO
    TITLE "2:cjc116_2464"
    INDEX 01 02:48:24
  TRACK 157 AUDIO
    TITLE "0:"
    INDEX 01 02:49:69
  TRACK 158 AUDIO
    TITLE "2:cjc116_2465"
    INDEX 01 02:50:35
  TRACK 159 AUDIO
    TITLE "0:"
    INDEX 01 02:52:24
  TRACK 160 AUDIO
    TITLE "2:cjc116_2466"
    INDEX 01 02:52:67
  TRACK 161 AUDIO
    TITLE "0:"
    INDEX 01 02:54:43
  TRACK 162 AUDIO
    TITLE "2:cjc116_2467"
    INDEX 01 02:55:05
  TRACK 163 AUDIO
    TITLE "0:"
    INDEX 01 02:56:42
  TRACK 164 AUDIO
    TITLE "2:cjc116_2468"
    INDEX 01 02:57:20
  TRACK 165 AUDIO
    TITLE "0:"
    INDEX 01 02:58:72
  TRACK 166 AUDIO
    TITLE "2:cjc116_2469"
    INDEX 01 02:59:34
  TRACK 167 AUDIO
    TITLE "0:"
    INDEX 01 03:01:39
  TRACK 168 AUDIO
    TITLE "2:cjc116_2470"
    INDEX 01 03:02:13
  TRACK 169 AUDIO
    TITLE "0:"
    INDEX 01 03:03:51
  TRACK 170 AUDIO
    TITLE "2:cjc116_2471"
    INDEX 01 03:04:12
  TRACK 171 AUDIO
    TITLE "0:"
    INDEX 01 03:06:15
  TRACK 172 AUDIO
    TITLE "2:cjc116_2472"
    INDEX 01 03:06:52
  TRACK 173 AUDIO
    TITLE "0:"
    INDEX 01 03:08:45
  TRACK 174 AUDIO
    TITLE "2:cjc116_2473"
    INDEX 01 03:09:07
  TRACK 175 AUDIO
    TITLE "0:"
    INDEX 01 03:10:63
  TRACK 176 AUDIO
    TITLE "2:cjc116_2474"
    INDEX 01 03:11:37
  TRACK 177 AUDIO
    TITLE "0:"
    INDEX 01 03:16:21
  TRACK 178 AUDIO
    TITLE "2:cjc116_2475"
    INDEX 01 03:16:60
  TRACK 179 AUDIO
    TITLE "0:"
    INDEX 01 03:18:30
  TRACK 180 AUDIO
    TITLE "2:cjc116_2476"
    INDEX 01 03:18:67
  TRACK 181 AUDIO
    TITLE "0:"
    INDEX 01 03:20:19
  TRACK 182 AUDIO
    TITLE "2:cjc116_2477"
    INDEX 01 03:20:58
  TRACK 183 AUDIO
    TITLE "0:"
    INDEX 01 03:22:06
  TRACK 184 AUDIO
    TITLE "2:cjc116_2478"
    INDEX 01 03:22:49
  TRACK 185 AUDIO
    TITLE "0:"
    INDEX 01 03:23:66
  TRACK 186 AUDIO
    TITLE "3:cjc116_2479"
    INDEX 01 03:25:47
  TRACK 187 AUDIO
    TITLE "0:"
    INDEX 01 03:26:49
  TRACK 188 AUDIO
    TITLE "2:cjc116_2480"
    INDEX 01 03:27:23
  TRACK 189 AUDIO
    TITLE "0:"
    INDEX 01 03:28:63
  TRACK 190 AUDIO
    TITLE "2:cjc116_2481"
    INDEX 01 03:29:27
  TRACK 191 AUDIO
    TITLE "0:"
    INDEX 01 03:30:72
  TRACK 192 AUDIO
    TITLE "2:cjc116_2482"
    INDEX 01 03:31:36
  TRACK 193 AUDIO
    TITLE "0:"
    INDEX 01 03:33:21
  TRACK 194 AUDIO
    TITLE "2:cjc116_2483"
    INDEX 01 03:33:55
  TRACK 195 AUDIO
    TITLE "0:"
    INDEX 01 03:35:24
  TRACK 196 AUDIO
    TITLE "2:cjc116_2484"
    INDEX 01 03:35:63
  TRACK 197 AUDIO
    TITLE "0:"
    INDEX 01 03:37:33
  TRACK 198 AUDIO
    TITLE "2:cjc116_2485"
    INDEX 01 03:38:05
  TRACK 199 AUDIO
    TITLE "0:"
    INDEX 01 03:39:34
  TRACK 200 AUDIO
    TITLE "2:cjc116_2486"
    INDEX 01 03:39:67
  TRACK 201 AUDIO
    TITLE "0:"
    INDEX 01 03:41:31
  TRACK 202 AUDIO
    TITLE "2:cjc116_2487"
    INDEX 01 03:42:08
  TRACK 203 AUDIO
    TITLE "0:"
    INDEX 01 03:43:26
  TRACK 204 AUDIO
    TITLE "2:cjc116_2488"
    INDEX 01 03:43:73
  TRACK 205 AUDIO
    TITLE "0:"
    INDEX 01 03:45:40
  TRACK 206 AUDIO
    TITLE "2:cjc116_2489"
    INDEX 01 03:46:10
  TRACK 207 AUDIO
    TITLE "0:"
    INDEX 01 03:47:33
  TRACK 208 AUDIO
    TITLE "2:cjc116_2490"
    INDEX 01 03:47:63
  TRACK 209 AUDIO
    TITLE "0:"
    INDEX 01 03:49:42
  TRACK 210 AUDIO
    TITLE "2:cjc116_2491"
    INDEX 01 03:50:06
  TRACK 211 AUDIO
    TITLE "0:"
    INDEX 01 03:51:58
  TRACK 212 AUDIO
    TITLE "2:cjc116_2492"
    INDEX 01 03:52:21
  TRACK 213 AUDIO
    TITLE "0:"
    INDEX 01 03:53:55
  TRACK 214 AUDIO
    TITLE "2:cjc116_2493"
    INDEX 01 03:54:25
  TRACK 215 AUDIO
    TITLE "0:"
    INDEX 01 03:56:42
  TRACK 216 AUDIO
    TITLE "2:cjc116_2494"
    INDEX 01 03:57:04
  TRACK 217 AUDIO
    TITLE "0:"
    INDEX 01 03:58:58
  TRACK 218 AUDIO
    TITLE "2:cjc116_2495"
    INDEX 01 03:59:27
  TRACK 219 AUDIO
    TITLE "0:"
    INDEX 01 04:00:57
  TRACK 220 AUDIO
    TITLE "2:cjc116_2496"
    INDEX 01 04:01:12
  TRACK 221 AUDIO
    TITLE "0:"
    INDEX 01 04:02:64
  TRACK 222 AUDIO
    TITLE "2:cjc116_2497"
    INDEX 01 04:03:34
  TRACK 223 AUDIO
    TITLE "0:"
    INDEX 01 04:05:04
  TRACK 224 AUDIO
    TITLE "2:cjc116_2498"
    INDEX 01 04:05:39
  TRACK 225 AUDIO
    TITLE "0:"
    INDEX 01 04:07:16
  TRACK 226 AUDIO
    TITLE "2:cjc116_2499"
    INDEX 01 04:07:61
  TRACK 227 AUDIO
    TITLE "0:"
    INDEX 01 04:09:54
  TRACK 228 AUDIO
    TITLE "2:cjc116_2500"
    INDEX 01 04:10:18
  TRACK 229 AUDIO
    TITLE "0:"
    INDEX 01 04:11:69
  TRACK 230 AUDIO
    TITLE "2:cjc116_2501"
    INDEX 01 04:12:31
  TRACK 231 AUDIO
    TITLE "0:"
    INDEX 01 04:14:54
  TRACK 232 AUDIO
    TITLE "2:cjc116_2502"
    INDEX 01 04:15:14
  TRACK 233 AUDIO
    TITLE "0:"
    INDEX 01 04:16:27
  TRACK 234 AUDIO
    TITLE "2:cjc116_2503"
    INDEX 01 04:16:72
  TRACK 235 AUDIO
    TITLE "0:"
    INDEX 01 04:18:12
  TRACK 236 AUDIO
    TITLE "2:cjc116_2504"
    INDEX 01 04:18:47
  TRACK 237 AUDIO
    TITLE "0:"
    INDEX 01 04:20:31
  TRACK 238 AUDIO
    TITLE "2:cjc116_2505"
    INDEX 01 04:20:72
  TRACK 239 AUDIO
    TITLE "0:"
    INDEX 01 04:22:33
  TRACK 240 AUDIO
    TITLE "2:cjc116_2506"
    INDEX 01 04:23:02
  TRACK 241 AUDIO
    TITLE "0:"
    INDEX 01 04:24:30
  TRACK 242 AUDIO
    TITLE "2:cjc116_2507"
    INDEX 01 04:24:73
  TRACK 243 AUDIO
    TITLE "0:"
    INDEX 01 04:26:21
  TRACK 244 AUDIO
    TITLE "2:cjc116_2508"
    INDEX 01 04:26:51
  TRACK 245 AUDIO
    TITLE "0:"
    INDEX 01 04:28:46
  TRACK 246 AUDIO
    TITLE "2:cjc116_2509"
    INDEX 01 04:29:16
  TRACK 247 AUDIO
    TITLE "0:"
    INDEX 01 04:31:36
  TRACK 248 AUDIO
    TITLE "2:cjc116_2510"
    INDEX 01 04:32:08
  TRACK 249 AUDIO
    TITLE "0:"
    INDEX 01 04:33:27
  TRACK 250 AUDIO
    TITLE "2:cjc116_2511"
    INDEX 01 04:33:67
  TRACK 251 AUDIO
    TITLE "0:"
    INDEX 01 04:35:28
  TRACK 252 AUDIO
    TITLE "2:cjc116_2512"
    INDEX 01 04:35:71
  TRACK 253 AUDIO
    TITLE "0:"
    INDEX 01 04:37:27
  TRACK 254 AUDIO
    TITLE "2:cjc116_2513"
    INDEX 01 04:37:74
  TRACK 255 AUDIO
    TITLE "0:"
    INDEX 01 04:39:42
  TRACK 256 AUDIO
    TITLE "2:cjc116_2514"
    INDEX 01 04:40:06
  TRACK 257 AUDIO
    TITLE "0:"
    INDEX 01 04:41:45
  TRACK 258 AUDIO
    TITLE "2:cjc116_2515"
    INDEX 01 04:42:09
  TRACK 259 AUDIO
    TITLE "0:"
    INDEX 01 04:43:51
  TRACK 260 AUDIO
    TITLE "2:cjc116_2516"
    INDEX 01 04:44:19
  TRACK 261 AUDIO
    TITLE "0:"
    INDEX 01 04:45:66
  TRACK 262 AUDIO
    TITLE "2:cjc116_2517"
    INDEX 01 04:46:34
  TRACK 263 AUDIO
    TITLE "0:"
    INDEX 01 04:47:43
  TRACK 264 AUDIO
    TITLE "2:cjc116_2518"
    INDEX 01 04:48:03
  TRACK 265 AUDIO
    TITLE "0:"
    INDEX 01 04:49:66
  TRACK 266 AUDIO
    TITLE "2:cjc116_2519"
    INDEX 01 04:50:30
  TRACK 267 AUDIO
    TITLE "0:"
    INDEX 01 04:52:09
  TRACK 268 AUDIO
    TITLE "2:cjc116_2520"
    INDEX 01 04:52:54
  TRACK 269 AUDIO
    TITLE "0:"
    INDEX 01 04:54:16
  TRACK 270 AUDIO
    TITLE "2:cjc116_2521"
    INDEX 01 04:54:61
  TRACK 271 AUDIO
    TITLE "0:"
    INDEX 01 04:56:30
  TRACK 272 AUDIO
    TITLE "2:cjc116_2522"
    INDEX 01 04:56:70
  TRACK 273 AUDIO
    TITLE "0:"
    INDEX 01 04:58:57
  TRACK 274 AUDIO
    TITLE "2:cjc116_2523"
    INDEX 01 04:59:27
  TRACK 275 AUDIO
    TITLE "0:"
    INDEX 01 05:01:00
  TRACK 276 AUDIO
    TITLE "2:cjc116_2524"
    INDEX 01 05:01:39
  TRACK 277 AUDIO
    TITLE "0:"
    INDEX 01 05:02:60
  TRACK 278 AUDIO
    TITLE "2:cjc116_2525"
    INDEX 01 05:03:34
  TRACK 279 AUDIO
    TITLE "0:"
    INDEX 01 05:04:73
  TRACK 280 AUDIO
    TITLE "2:cjc116_2526"
    INDEX 01 05:05:35
  TRACK 281 AUDIO
    TITLE "0:"
    INDEX 01 05:07:22
  TRACK 282 AUDIO
    TITLE "2:cjc116_2527"
    INDEX 01 05:07:69
  TRACK 283 AUDIO
    TITLE "0:"
    INDEX 01 05:10:42
  TRACK 284 AUDIO
    TITLE "2:cjc116_2528"
    INDEX 01 05:11:04
  TRACK 285 AUDIO
    TITLE "0:"
    INDEX 01 05:12:49
  TRACK 286 AUDIO
    TITLE "2:cjc116_2529"
    INDEX 01 05:13:19
  TRACK 287 AUDIO
    TITLE "0:"
    INDEX 01 05:14:69
  TRACK 288 AUDIO
    TITLE "2:cjc116_2530"
    INDEX 01 05:15:34
  TRACK 289 AUDIO
    TITLE "0:"
    INDEX 01 05:17:03
  TRACK 290 AUDIO
    TITLE "2:cjc116_2531"
    INDEX 01 05:17:42
  TRACK 291 AUDIO
    TITLE "0:"
    INDEX 01 05:19:12
  TRACK 292 AUDIO
    TITLE "2:cjc116_2532"
    INDEX 01 05:19:51
  TRACK 293 AUDIO
    TITLE "0:"
    INDEX 01 05:22:04
  TRACK 294 AUDIO
    TITLE "2:cjc116_2533"
    INDEX 01 05:22:42
  TRACK 295 AUDIO
    TITLE "0:"
    INDEX 01 05:25:12
  TRACK 296 AUDIO
    TITLE "2:cjc116_2534"
    INDEX 01 05:25:50
  TRACK 297 AUDIO
    TITLE "0:"
    INDEX 01 05:26:73
  TRACK 298 AUDIO
    TITLE "2:cjc116_2535"
    INDEX 01 05:27:39
  TRACK 299 AUDIO
    TITLE "0:"
    INDEX 01 05:28:48
